<?xml version="1.0" standalone="no"?>
<!DOCTYPE svg PUBLIC "-//W3C//DTD SVG 20010904//EN"
 "http://www.w3.org/TR/2001/REC-SVG-20010904/DTD/svg10.dtd">
<svg version="1.0" xmlns="http://www.w3.org/2000/svg"
 width="900.000000pt" height="960.000000pt" viewBox="0 0 900.000000 960.000000"
 preserveAspectRatio="xMidYMid meet">

<g transform="translate(0.000000,960.000000) scale(0.100000,-0.100000)"
fill="#000000" stroke="none">
<path d="M3640 5624 c0 -4 11 -62 25 -129 48 -240 151 -469 263 -587 l36 -38
317 0 317 0 37 43 c123 143 246 441 271 656 l7 61 -637 0 c-350 0 -636 -3
-636 -6z"/>
<path d="M4200 2675 c0 -36 3 -65 6 -65 4 0 16 10 28 23 12 13 29 26 39 30 9
3 17 11 17 16 0 10 34 25 60 26 8 0 21 4 28 8 27 18 -3 27 -89 27 l-89 0 0
-65z"/>
<path d="M4170 2579 c0 -11 5 -17 10 -14 6 3 10 13 10 21 0 8 -4 14 -10 14 -5
0 -10 -9 -10 -21z"/>
</g>
</svg>
